<?xml version="1.0" encoding="utf-8"?>
<svg viewBox="70.807 63.725 350.762 281.591" xmlns="http://www.w3.org/2000/svg">
  <defs>
    <linearGradient id="gradient_0" gradientUnits="userSpaceOnUse" x1="824.56787" y1="727.49066" x2="775.64655" y2="730.76251" gradientTransform="matrix(0.5, 0, 0, 0.5, -9.362167, -41.827798)">
      <stop offset="0" stop-color="#F14444" stop-opacity="0.81568629"/>
      <stop offset="1" stop-color="#F14444" stop-opacity="0.87843138"/>
    </linearGradient>
    <linearGradient id="gradient_1" gradientUnits="userSpaceOnUse" x1="768.90204" y1="755.38971" x2="710.41748" y2="718.33533" gradientTransform="matrix(0.5, 0, 0, 0.5, -9.362167, -41.827798)">
      <stop offset="0" stop-color="#F14444" stop-opacity="0.93333334"/>
      <stop offset="1" stop-color="#F24545"/>
    </linearGradient>
    <linearGradient id="gradient_2" gradientUnits="userSpaceOnUse" x1="701.17419" y1="633.89435" x2="671.47784" y2="445.39676" gradientTransform="matrix(0.5, 0, 0, 0.5, -9.362167, -41.827798)">
      <stop offset="0" stop-color="#F4F3D9"/>
      <stop offset="1" stop-color="#FEFFFF"/>
    </linearGradient>
    <linearGradient id="gradient_3" gradientUnits="userSpaceOnUse" x1="685.79956" y1="678.76672" x2="688.0036" y2="624.30627" gradientTransform="matrix(0.5, 0, 0, 0.5, -9.362167, -41.827798)">
      <stop offset="0" stop-color="#F89C2A"/>
      <stop offset="1" stop-color="#FAD563"/>
    </linearGradient>
  </defs>
  <path fill="#F24645" d="M 335.21 338.528 L 340.368 338.642 C 342.597 338.796 344.638 339 346.79 339.635 L 335.533 339.663 L 334.735 339.085 L 335.21 338.528 Z" transform="matrix(1, 0, 0, 1, -7.105427357601002e-15, 0)"/>
  <path fill="#F6692F" d="M 340.368 338.642 C 341.142 338.48 342.083 338.436 342.792 338.092 L 343.013 337.97 C 343.88 337.536 344.595 337.572 345.493 337.897 C 346.167 338.141 346.787 338.321 347.494 338.45 L 347.884 338.517 C 349.669 338.839 351.383 338.212 353.189 338.28 L 353.431 338.561 C 353.512 338.984 353.593 339.307 353.797 339.688 L 346.79 339.635 C 344.638 339 342.597 338.796 340.368 338.642 Z" transform="matrix(1, 0, 0, 1, -7.105427357601002e-15, 0)"/>
  <path fill="#F6692F" d="M 404.004 338.152 C 406.277 337.208 407.224 335.726 408.775 333.959 C 411.159 331.245 413.251 328.83 415.031 325.667 C 414.225 330.433 410.245 335.248 406.286 337.934 C 405.719 338.319 405.076 338.504 404.422 338.68 L 404.004 338.152 Z" transform="matrix(1, 0, 0, 1, -7.105427357601002e-15, 0)"/>
  <path fill="#D83A36" d="M 353.431 338.561 C 357.217 339.603 361.313 339.335 365.213 339.326 L 379.8 339.114 C 384.188 338.963 388.514 338.652 392.888 338.799 C 393.889 338.833 396.45 338.225 397.263 338.549 C 397.593 338.681 398.148 339.136 398.455 339.34 C 388.67 340.827 378.374 339.951 368.497 339.913 L 359.634 339.892 C 357.726 339.888 355.679 340.009 353.797 339.688 C 353.593 339.307 353.512 338.984 353.431 338.561 Z" transform="matrix(1, 0, 0, 1, -7.105427357601002e-15, 0)"/>
  <path fill="#D83A36" d="M 292.425 339.159 C 294.554 338.542 297.424 338.808 299.661 338.769 L 323.421 338.924 L 330.516 338.797 C 331.938 338.769 333.369 338.632 334.735 339.085 L 335.533 339.663 L 290.23 340.162 C 291.015 339.904 291.699 339.549 292.425 339.159 Z" transform="matrix(1, 0, 0, 1, -7.105427357601002e-15, 0)"/>
  <path fill="#F24645" d="M 267.133 337.239 C 269.779 336.665 273.208 337.225 275.916 337.35 C 277.229 337.411 279.228 337.253 280.442 337.779 L 280.59 337.892 L 280.814 338.666 C 281.631 338.761 282.454 338.894 283.278 338.874 C 284.102 339.246 284.888 339.614 285.655 340.092 C 282.13 339.876 278.777 340.085 275.263 340.164 L 262.638 340.638 C 260.937 340.757 259.123 340.436 257.476 340.892 L 257.301 339.545 C 259.999 339.898 262.915 339.68 265.59 339.218 L 267.067 338.099 L 267.133 337.239 Z" transform="matrix(1, 0, 0, 1, -7.105427357601002e-15, 0)"/>
  <path fill="#F6692F" d="M 267.133 337.239 C 269.779 336.665 273.208 337.225 275.916 337.35 C 277.229 337.411 279.228 337.253 280.442 337.779 L 280.59 337.892 L 280.814 338.666 L 270.63 339.285 C 268.982 339.318 267.223 339.443 265.59 339.218 L 267.067 338.099 L 267.133 337.239 Z" transform="matrix(1, 0, 0, 1, -7.105427357601002e-15, 0)"/>
  <path fill="#EC6D2C" fill-opacity="0.95686275" d="M 377.666 332.892 C 378.05 333.342 378.415 333.799 378.851 334.199 C 379.73 335.661 381.018 336.584 382.671 337.019 C 385.368 337.73 388.032 336.746 390.789 337.237 C 391.529 337.368 392.241 337.251 392.974 337.44 C 393.612 337.605 394.233 337.561 394.888 337.547 L 395.033 337.797 L 395.324 337.59 C 395.872 337.258 396.58 337.11 397.219 337.159 C 396.843 337.384 396.692 337.381 396.515 337.797 C 396.681 337.896 396.826 338.044 397.013 338.094 C 397.647 338.261 399.156 337.897 399.888 337.882 C 401.266 337.853 402.63 338.247 404.004 338.152 L 404.422 338.68 C 402.385 338.61 400.45 338.987 398.455 339.34 C 398.148 339.136 397.593 338.681 397.263 338.549 C 396.45 338.225 393.889 338.833 392.888 338.799 C 388.514 338.652 384.188 338.963 379.8 339.114 L 365.213 339.326 C 361.313 339.335 357.217 339.603 353.431 338.561 L 353.189 338.28 C 353.689 338.205 353.824 338.002 354.212 337.693 C 355.278 336.827 370.724 337.513 374.211 336.337 C 375.956 335.749 376.861 334.488 377.666 332.892 Z" transform="matrix(1, 0, 0, 1, -7.105427357601002e-15, 0)"/>
  <path fill="#F24645" d="M 293.76 307.53 C 298.069 308.472 302.714 308.145 307.102 308.157 C 309.778 308.164 312.368 307.953 314.878 309.047 L 316.32 309.677 C 317.088 309.892 317.758 309.916 318.181 310.672 C 318.987 312.111 319.102 313.903 320.05 315.243 L 319.939 326.663 C 319.91 328.845 319.557 331.647 320.309 333.708 L 320.404 333.979 C 320.885 335.244 322.202 336.175 323.388 336.711 L 323.688 336.848 C 325.997 337.83 334.963 337.038 335.296 337.57 L 334.59 337.797 L 335.21 338.528 L 334.735 339.085 C 333.369 338.632 331.938 338.769 330.516 338.797 L 323.421 338.924 L 299.661 338.769 C 297.424 338.808 294.554 338.542 292.425 339.159 C 291.699 339.549 291.015 339.904 290.23 340.162 L 285.655 340.092 C 284.888 339.614 284.102 339.246 283.278 338.874 C 282.454 338.894 281.631 338.761 280.814 338.666 L 280.59 337.892 C 282.922 337.51 287.024 337.565 288.5 335.438 C 288.79 335.021 289.042 334.427 289.094 333.922 C 289.305 331.859 289.078 329.587 289.094 327.505 C 289.128 323.102 289.384 318.576 289.095 314.193 C 289.021 313.066 288.715 311.932 288.43 310.842 L 287.503 309.315 C 288.994 309.507 290.356 309.666 291.86 309.498 C 292.526 309.037 293.189 308.13 293.76 307.53 Z" transform="matrix(1, 0, 0, 1, -7.105427357601002e-15, 0)"/>
  <path fill="#EC6D2C" d="M 287.503 309.315 C 288.994 309.507 290.356 309.666 291.86 309.498 C 291.338 310.799 291.088 311.769 291.059 313.167 L 291.14 333.971 C 292.455 335.042 293.398 336.301 294.415 337.644 C 297.163 338.182 301.306 338.064 304.075 337.613 C 305.996 337.301 307.852 337.244 309.796 337.249 C 311.056 337.252 312.57 337.391 313.798 337.096 C 314.924 336.826 316.059 335.923 316.617 334.922 C 317.272 333.748 317.137 332.251 317.132 330.952 L 317.143 325.052 C 317.165 320.905 317.586 316.68 317.095 312.547 C 316.981 311.589 316.606 310.597 316.32 309.677 C 317.088 309.892 317.758 309.916 318.181 310.672 C 318.987 312.111 319.102 313.903 320.05 315.243 L 319.939 326.663 C 319.91 328.845 319.557 331.647 320.309 333.708 L 320.404 333.979 C 320.885 335.244 322.202 336.175 323.388 336.711 L 323.688 336.848 C 325.997 337.83 334.963 337.038 335.296 337.57 L 334.59 337.797 L 335.21 338.528 L 334.735 339.085 C 333.369 338.632 331.938 338.769 330.516 338.797 L 323.421 338.924 L 299.661 338.769 C 297.424 338.808 294.554 338.542 292.425 339.159 C 291.699 339.549 291.015 339.904 290.23 340.162 L 285.655 340.092 C 284.888 339.614 284.102 339.246 283.278 338.874 C 282.454 338.894 281.631 338.761 280.814 338.666 L 280.59 337.892 C 282.922 337.51 287.024 337.565 288.5 335.438 C 288.79 335.021 289.042 334.427 289.094 333.922 C 289.305 331.859 289.078 329.587 289.094 327.505 C 289.128 323.102 289.384 318.576 289.095 314.193 C 289.021 313.066 288.715 311.932 288.43 310.842 L 287.503 309.315 Z" transform="matrix(1, 0, 0, 1, -7.105427357601002e-15, 0)"/>
  <path fill="#F6692F" d="M 287.503 309.315 C 288.994 309.507 290.356 309.666 291.86 309.498 C 291.338 310.799 291.088 311.769 291.059 313.167 L 290.873 311.855 C 290.8 311.457 290.882 311.109 290.489 310.892 C 289.824 310.524 289.117 310.597 288.43 310.842 L 287.503 309.315 Z" transform="matrix(1, 0, 0, 1, -7.105427357601002e-15, 0)"/>
  <path fill="#F6692F" d="M 283.278 338.874 C 284.837 338.552 286.454 338.723 288.033 338.785 C 289.494 338.842 291 338.811 292.425 339.159 C 291.699 339.549 291.015 339.904 290.23 340.162 L 285.655 340.092 C 284.888 339.614 284.102 339.246 283.278 338.874 Z" transform="matrix(1, 0, 0, 1, -7.105427357601002e-15, 0)"/>
  <path fill="#91C2E1" d="M 130.208 106.845 C 130.428 103.163 130.06 99.685 129.993 96.016 L 129.92 84.995 C 129.895 81.198 129.443 76.797 130.859 73.202 C 131.327 72.014 132.353 70.846 133.254 69.958 C 135.282 67.959 138.47 66.949 141.283 66.932 C 144.11 66.916 146.35 67.993 148.315 69.983 C 149.712 71.398 150.949 73.165 151.432 75.111 C 152.194 78.183 151.668 82.304 151.665 85.519 L 151.656 106.376 C 151.707 111.531 152.581 117.284 148.66 121.331 C 146.963 123.083 144.52 124.743 142.01 124.8 C 138.861 124.871 135.669 123.427 133.482 121.211 C 131.24 118.941 130.686 116.402 130.283 113.348 C 130.003 111.221 130.162 108.988 130.208 106.845 Z" transform="matrix(1, 0, 0, 1, -7.105427357601002e-15, 0)"/>
  <path fill="#91C2E1" d="M 332.589 106.664 L 332.561 89.868 C 332.507 85.478 332.106 80.846 332.773 76.501 L 332.827 76.172 C 333.182 73.901 333.727 72.08 335.384 70.397 C 337.447 68.303 340.73 66.97 343.638 66.949 C 346.537 66.929 349.697 68.3 351.687 70.401 C 353.031 71.819 353.941 73.77 354.37 75.676 C 355.076 78.819 354.651 82.735 354.642 85.981 L 354.506 104.966 L 354.155 111.422 C 354.117 113.352 354.328 115.325 353.687 117.172 L 353.58 117.495 C 352.808 119.74 350.409 122.362 348.293 123.43 C 346.298 124.437 343.165 125.146 340.974 124.402 C 337.914 123.362 334.757 120.927 333.47 117.914 C 332.03 114.546 332.484 110.27 332.589 106.664 Z" transform="matrix(1, 0, 0, 1, -7.105427357601002e-15, 0)"/>
  <path fill="#FA9228" d="M 377.068 270.701 C 377.514 270.252 378.228 269.623 378.477 269.034 C 378.927 267.971 378.74 266.481 379.069 265.337 C 379.852 262.606 379.212 259.377 379.193 256.541 L 379.364 246.6 C 382.402 245.969 385.487 246.092 388.572 246.088 L 401.912 246.489 C 402.522 247.155 403.15 247.775 403.379 248.672 C 404.017 251.172 403.648 254.366 403.653 256.958 C 403.661 261.253 403.864 265.64 403.645 269.922 L 403.461 271.422 L 403.411 271.718 C 403.218 272.806 402.701 274.431 401.785 275.123 C 400.2 276.321 394.921 275.558 392.888 275.561 C 391.031 275.563 389.201 275.702 387.388 276.109 L 387.05 276.181 C 386.357 276.34 385.93 276.605 385.356 277.02 C 386.98 277.682 388.576 277.942 390.293 278.245 L 396.89 278.007 C 397.72 277.979 398.982 277.804 399.778 278.016 C 400.53 278.216 401.655 279.049 402.215 279.594 C 403.012 280.368 403.554 281.045 403.874 282.111 C 404.39 283.833 404.153 285.997 404.215 287.797 L 404.593 293.375 C 404.605 293.685 404.529 294.963 404.643 295.178 C 404.83 295.532 406.651 296.663 407.073 297.026 L 416.652 305.767 L 416.619 291.375 L 416.791 291.229 L 416.884 304.934 C 416.997 311.702 417.484 319.229 415.031 325.667 C 413.251 328.83 411.159 331.245 408.775 333.959 C 407.224 335.726 406.277 337.208 404.004 338.152 C 402.63 338.247 401.266 337.853 399.888 337.882 C 399.156 337.897 397.647 338.261 397.013 338.094 C 396.826 338.044 396.681 337.896 396.515 337.797 C 396.692 337.381 396.843 337.384 397.219 337.159 C 396.58 337.11 395.872 337.258 395.324 337.59 L 395.033 337.797 L 394.888 337.547 C 394.233 337.561 393.612 337.605 392.974 337.44 C 392.241 337.251 391.529 337.368 390.789 337.237 C 388.032 336.746 385.368 337.73 382.671 337.019 C 381.018 336.584 379.73 335.661 378.851 334.199 C 378.415 333.799 378.05 333.342 377.666 332.892 C 376.861 334.488 375.956 335.749 374.211 336.337 C 370.724 337.513 355.278 336.827 354.212 337.693 C 353.824 338.002 353.689 338.205 353.189 338.28 C 351.383 338.212 349.669 338.839 347.884 338.517 L 347.494 338.45 C 346.787 338.321 346.167 338.141 345.493 337.897 C 344.595 337.572 343.88 337.536 343.013 337.97 L 342.792 338.092 C 342.083 338.436 341.142 338.48 340.368 338.642 L 335.21 338.528 L 334.59 337.797 L 335.296 337.57 C 334.963 337.038 325.997 337.83 323.688 336.848 L 323.388 336.711 C 322.202 336.175 320.885 335.244 320.404 333.979 L 320.309 333.708 C 319.557 331.647 319.91 328.845 319.939 326.663 L 320.05 315.243 C 320.214 314.025 320.239 311.942 320.728 310.868 C 321.478 309.224 323.63 308.32 325.234 307.929 L 339.251 308.053 L 339.341 307.947 C 340.162 306.952 341.103 306.974 342.307 306.81 L 343.513 306.446 C 344.565 305.944 345.04 304.967 345.498 303.958 L 345.626 303.672 C 345.941 302.985 346.063 302.245 346.193 301.505 C 346.57 299.354 347.197 282.747 346.272 281.524 L 344.293 278.849 C 345.631 279.206 349.085 279.648 350.275 278.977 L 350.566 278.797 L 350.05 280.156 L 350.503 281.004 C 350.677 280.492 350.873 280 351.176 279.547 C 351.647 278.844 352.686 277.822 353.513 277.624 C 353.874 277.896 354.12 278.055 354.572 278.148 C 356.039 278.451 358.033 278.202 359.544 278.2 C 361.724 278.197 371.57 278.681 373.013 277.635 C 373.181 276.886 372.987 276.606 372.733 275.895 L 374.013 275.632 C 375.446 274.007 376.096 272.574 377.068 270.701 Z M 357.17 308.432 C 355.231 308.108 352.67 307.862 351.013 309.158 C 349.362 310.45 348.836 312.808 348.695 314.801 C 348.518 317.285 348.783 319.824 348.764 322.315 C 348.747 324.518 348.485 326.724 348.343 328.922 C 348.257 330.239 348.352 331.803 348.013 333.073 C 348.656 334.957 349.828 336.212 351.609 337.088 C 352.411 337.482 353.168 337.556 354.039 337.665 L 354.212 337.693 C 355.278 336.827 370.724 337.513 374.211 336.337 C 375.956 335.749 376.861 334.488 377.666 332.892 C 377.672 331.237 377.687 329.746 377.209 328.144 C 377.663 328.043 378.052 328.013 378.377 327.632 C 379.021 326.878 378.826 325.576 378.702 324.684 L 378.641 324.277 C 378.542 323.542 378.698 323.417 379.118 322.866 C 379.452 320.262 379.097 317.149 379.045 314.499 L 378.765 314.66 L 378.515 314.547 L 378.049 311.229 C 377.264 310.137 376.111 309.323 374.94 308.69 C 374.495 308.45 374.039 308.254 373.535 308.185 C 370.855 307.817 367.718 308.122 364.996 308.131 C 362.58 308.139 359.448 307.739 357.17 308.432 Z M 379.045 314.499 C 379.097 317.149 379.452 320.262 379.118 322.866 C 378.698 323.417 378.542 323.542 378.641 324.277 L 378.702 324.684 C 378.826 325.576 379.021 326.878 378.377 327.632 C 378.052 328.013 377.663 328.043 377.209 328.144 C 377.687 329.746 377.672 331.237 377.666 332.892 C 378.05 333.342 378.415 333.799 378.851 334.199 C 379.73 335.661 381.018 336.584 382.671 337.019 C 385.368 337.73 388.032 336.746 390.789 337.237 C 391.529 337.368 392.241 337.251 392.974 337.44 C 393.612 337.605 394.233 337.561 394.888 337.547 L 395.033 337.797 L 395.324 337.59 C 395.872 337.258 396.58 337.11 397.219 337.159 C 397.574 337.163 397.908 337.166 398.26 337.106 C 400.069 336.798 401.708 336.145 402.775 334.584 C 403.33 333.772 403.69 332.706 403.833 331.739 C 404.199 329.249 403.925 326.443 403.9 323.917 C 403.863 320.083 404.173 315.957 403.372 312.193 L 403.312 311.922 L 403.055 310.922 C 402.688 309.828 401.884 308.855 400.807 308.414 C 399.486 307.874 396.965 308.461 395.513 308.439 L 386.363 308.369 C 384.616 308.426 382.905 308.298 381.263 308.993 C 379.807 310.61 379.382 312.404 379.045 314.499 Z M 350.655 284.471 L 350.538 285.411 L 351.361 303.678 C 351.91 304.308 352.471 304.965 353.161 305.445 C 353.982 306.017 355.012 306.491 356.013 306.61 C 357.265 306.759 358.722 306.343 360.013 306.331 C 364.836 306.287 369.028 306.738 373.817 305.714 L 362.727 295.195 L 356.189 289.423 C 354.468 287.845 352.659 285.553 350.655 284.471 Z" transform="matrix(1, 0, 0, 1, -7.105427357601002e-15, 0)"/>
  <path fill="#F6C855" d="M 350.538 285.411 C 349.66 285.071 349.514 284.773 348.573 285.099 L 348.219 284.915 L 348.47 284.424 L 348.376 283.922 C 348.313 282.49 349.078 281.084 350.05 280.156 L 350.503 281.004 L 350.505 281.209 C 350.466 282.405 349.95 283.326 350.655 284.471 L 350.538 285.411 Z" transform="matrix(1, 0, 0, 1, -7.105427357601002e-15, 0)"/>
  <path fill="#EC6D2C" fill-opacity="0.97254902" d="M 350.655 284.471 C 352.659 285.553 354.468 287.845 356.189 289.423 L 362.727 295.195 L 373.817 305.714 C 369.028 306.738 364.836 306.287 360.013 306.331 C 358.722 306.343 357.265 306.759 356.013 306.61 C 355.012 306.491 353.982 306.017 353.161 305.445 C 352.471 304.965 351.91 304.308 351.361 303.678 L 350.538 285.411 L 350.655 284.471 Z" transform="matrix(1, 0, 0, 1, -7.105427357601002e-15, 0)"/>
  <path fill="#EC6D2C" d="M 385.356 277.02 C 386.98 277.682 388.576 277.942 390.293 278.245 C 392.838 280.41 395.116 282.912 397.423 285.327 C 399.574 287.577 401.88 289.816 403.651 292.38 C 403.653 295.249 403.978 298.729 403.458 301.529 C 403.173 303.062 402.55 304.418 401.894 305.816 C 400.14 306.282 397.672 306.025 395.841 306.061 C 392.05 306.134 387.679 306.593 383.933 306.059 C 382.143 305.804 381.354 304.99 380.305 303.546 C 379.396 298.886 380.333 293.915 380.394 289.201 C 380.425 286.83 379.783 283.7 380.452 281.441 C 381.129 279.156 383.415 278.059 385.356 277.02 Z" transform="matrix(1, 0, 0, 1, -7.105427357601002e-15, 0)"/>
  <path fill="url(#gradient_0)" d="M 379.045 314.499 C 379.382 312.404 379.807 310.61 381.263 308.993 C 382.905 308.298 384.616 308.426 386.363 308.369 L 395.513 308.439 C 396.965 308.461 399.486 307.874 400.807 308.414 C 401.884 308.855 402.688 309.828 403.055 310.922 L 403.312 311.922 L 403.372 312.193 C 404.173 315.957 403.863 320.083 403.9 323.917 C 403.925 326.443 404.199 329.249 403.833 331.739 C 403.69 332.706 403.33 333.772 402.775 334.584 C 401.708 336.145 400.069 336.798 398.26 337.106 C 397.908 337.166 397.574 337.163 397.219 337.159 C 396.58 337.11 395.872 337.258 395.324 337.59 L 395.033 337.797 L 394.888 337.547 C 394.233 337.561 393.612 337.605 392.974 337.44 C 392.241 337.251 391.529 337.368 390.789 337.237 C 388.032 336.746 385.368 337.73 382.671 337.019 C 381.018 336.584 379.73 335.661 378.851 334.199 C 378.415 333.799 378.05 333.342 377.666 332.892 C 377.672 331.237 377.687 329.746 377.209 328.144 C 377.663 328.043 378.052 328.013 378.377 327.632 C 379.021 326.878 378.826 325.576 378.702 324.684 L 378.641 324.277 C 378.542 323.542 378.698 323.417 379.118 322.866 C 379.452 320.262 379.097 317.149 379.045 314.499 Z M 379.118 322.866 C 378.698 323.417 378.542 323.542 378.641 324.277 L 378.702 324.684 C 378.826 325.576 379.021 326.878 378.377 327.632 C 378.052 328.013 377.663 328.043 377.209 328.144 C 377.687 329.746 377.672 331.237 377.666 332.892 C 378.05 333.342 378.415 333.799 378.851 334.199 L 379.118 322.866 Z" transform="matrix(1, 0, 0, 1, -7.105427357601002e-15, 0)"/>
  <path fill="#F89525" fill-opacity="0.93333334" d="M 379.118 322.866 L 378.851 334.199 C 378.415 333.799 378.05 333.342 377.666 332.892 C 377.672 331.237 377.687 329.746 377.209 328.144 C 377.663 328.043 378.052 328.013 378.377 327.632 C 379.021 326.878 378.826 325.576 378.702 324.684 L 378.641 324.277 C 378.542 323.542 378.698 323.417 379.118 322.866 Z" transform="matrix(1, 0, 0, 1, -7.105427357601002e-15, 0)"/>
  <path fill="#F24645" d="M 325.234 307.929 L 339.251 308.053 L 339.341 307.947 C 341.983 308.187 344.257 308.656 346.601 309.949 L 347.164 326.096 L 347.232 332.17 C 347.23 332.527 347.039 333.649 347.144 333.922 C 347.237 334.163 347.451 334.338 347.604 334.547 C 347.168 334.999 346.754 335.112 346.263 335.446 C 344.07 336.939 342.659 337.82 339.841 337.835 L 335.296 337.57 C 334.963 337.038 325.997 337.83 323.688 336.848 L 323.388 336.711 C 322.202 336.175 320.885 335.244 320.404 333.979 L 320.309 333.708 C 319.557 331.647 319.91 328.845 319.939 326.663 L 320.05 315.243 C 320.214 314.025 320.239 311.942 320.728 310.868 C 321.478 309.224 323.63 308.32 325.234 307.929 Z" transform="matrix(1, 0, 0, 1, -7.105427357601002e-15, 0)"/>
  <path fill="url(#gradient_1)" d="M 357.17 308.432 C 359.448 307.739 362.58 308.139 364.996 308.131 C 367.718 308.122 370.855 307.817 373.535 308.185 C 374.039 308.254 374.495 308.45 374.94 308.69 C 376.111 309.323 377.264 310.137 378.049 311.229 L 378.515 314.547 L 378.765 314.66 L 379.045 314.499 C 379.097 317.149 379.452 320.262 379.118 322.866 C 378.698 323.417 378.542 323.542 378.641 324.277 L 378.702 324.684 C 378.826 325.576 379.021 326.878 378.377 327.632 C 378.052 328.013 377.663 328.043 377.209 328.144 C 377.687 329.746 377.672 331.237 377.666 332.892 C 376.861 334.488 375.956 335.749 374.211 336.337 C 370.724 337.513 355.278 336.827 354.212 337.693 L 354.039 337.665 C 353.168 337.556 352.411 337.482 351.609 337.088 C 349.828 336.212 348.656 334.957 348.013 333.073 C 348.352 331.803 348.257 330.239 348.343 328.922 C 348.485 326.724 348.747 324.518 348.764 322.315 C 348.783 319.824 348.518 317.285 348.695 314.801 C 348.836 312.808 349.362 310.45 351.013 309.158 C 352.67 307.862 355.231 308.108 357.17 308.432 Z" transform="matrix(1, 0, 0, 1, -7.105427357601002e-15, 0)"/>
  <path fill="#FD8028" d="M 357.17 308.432 C 359.448 307.739 362.58 308.139 364.996 308.131 C 367.718 308.122 370.855 307.817 373.535 308.185 C 374.039 308.254 374.495 308.45 374.94 308.69 C 376.111 309.323 377.264 310.137 378.049 311.229 L 378.515 314.547 L 378.765 314.66 L 379.045 314.499 C 379.097 317.149 379.452 320.262 379.118 322.866 C 378.698 323.417 378.542 323.542 378.641 324.277 L 378.702 324.684 C 378.826 325.576 379.021 326.878 378.377 327.632 C 378.052 328.013 377.663 328.043 377.209 328.144 C 376.644 326.677 375.379 325.557 374.297 324.454 C 371.384 321.482 368.183 318.897 365.168 316.041 C 362.462 313.478 360.245 310.624 357.17 308.432 Z" transform="matrix(1, 0, 0, 1, -7.105427357601002e-15, 0)"/>
  <path fill="#F6C855" d="M 332.589 106.664 C 332.484 110.27 332.03 114.546 333.47 117.914 C 334.757 120.927 337.914 123.362 340.974 124.402 C 343.165 125.146 346.298 124.437 348.293 123.43 C 350.409 122.362 352.808 119.74 353.58 117.495 L 353.687 117.172 C 354.328 115.325 354.117 113.352 354.155 111.422 L 354.506 104.966 L 354.557 106.047 C 355.305 106.611 358.602 106 359.763 105.988 L 377.579 106.089 L 390.159 105.904 C 393.534 105.861 397.014 105.704 400.314 106.507 C 403.11 107.188 405.639 108.698 407.891 110.436 C 412.13 113.707 415.917 119.448 416.562 124.854 L 416.846 138.914 L 416.897 170.674 L 257.186 170.838 L 257.119 138.923 L 74.837 139.165 C 74.852 132.83 74.52 125.234 77.23 119.353 C 79.741 113.902 84.877 109.003 90.545 106.991 C 92.316 106.362 94.23 106.044 96.103 105.925 C 100.346 105.656 104.789 106.019 109.051 106.062 L 122.298 106.15 C 124.021 106.158 127.11 105.85 128.665 106.619 C 129.146 106.856 129.443 106.846 129.972 106.848 L 130.208 106.845 C 130.162 108.988 130.003 111.221 130.283 113.348 C 130.686 116.402 131.24 118.941 133.482 121.211 C 135.669 123.427 138.861 124.871 142.01 124.8 C 144.52 124.743 146.963 123.083 148.66 121.331 C 152.581 117.284 151.707 111.531 151.656 106.376 C 161.56 105.682 171.742 106.114 181.679 106.116 L 234.52 106.138 L 299.168 106.156 L 318.437 106.155 C 322.315 106.156 327.473 105.55 331.167 106.712 C 331.697 106.879 332.056 106.767 332.589 106.664 Z" transform="matrix(1, 0, 0, 1, -7.105427357601002e-15, 0)"/>
  <path fill="#58768E" d="M 257.119 138.923 L 416.846 138.914 L 416.897 170.674 L 257.186 170.838 L 257.119 138.923 Z" transform="matrix(1, 0, 0, 1, -7.105427357601002e-15, 0)"/>
  <path fill="url(#gradient_2)" d="M 257.186 170.838 L 416.897 170.674 L 416.791 291.229 L 416.619 291.375 L 416.652 305.767 L 407.073 297.026 C 406.651 296.663 404.83 295.532 404.643 295.178 C 404.529 294.963 404.605 293.685 404.593 293.375 L 404.215 287.797 C 404.153 285.997 404.39 283.833 403.874 282.111 C 403.554 281.045 403.012 280.368 402.215 279.594 C 401.655 279.049 400.53 278.216 399.778 278.016 C 398.982 277.804 397.72 277.979 396.89 278.007 L 390.293 278.245 C 388.576 277.942 386.98 277.682 385.356 277.02 C 385.93 276.605 386.357 276.34 387.05 276.181 L 387.388 276.109 C 389.201 275.702 391.031 275.563 392.888 275.561 C 394.921 275.558 400.2 276.321 401.785 275.123 C 402.701 274.431 403.218 272.806 403.411 271.718 L 403.461 271.422 L 403.645 269.922 C 403.864 265.64 403.661 261.253 403.653 256.958 C 403.648 254.366 404.017 251.172 403.379 248.672 C 403.15 247.775 402.522 247.155 401.912 246.489 L 388.572 246.088 C 385.487 246.092 382.402 245.969 379.364 246.6 L 379.193 256.541 C 379.212 259.377 379.852 262.606 379.069 265.337 C 378.74 266.481 378.927 267.971 378.477 269.034 C 378.228 269.623 377.514 270.252 377.068 270.701 C 376.096 272.574 375.446 274.007 374.013 275.632 L 372.733 275.895 C 372.987 276.606 373.181 276.886 373.013 277.635 C 371.57 278.681 361.724 278.197 359.544 278.2 C 358.033 278.202 356.039 278.451 354.572 278.148 C 354.12 278.055 353.874 277.896 353.513 277.624 C 352.686 277.822 351.647 278.844 351.176 279.547 C 350.873 280 350.677 280.492 350.503 281.004 L 350.05 280.156 L 350.566 278.797 L 350.275 278.977 C 349.085 279.648 345.631 279.206 344.293 278.849 L 346.272 281.524 C 347.197 282.747 346.57 299.354 346.193 301.505 C 346.063 302.245 345.941 302.985 345.626 303.672 L 345.498 303.958 C 345.04 304.967 344.565 305.944 343.513 306.446 L 342.307 306.81 C 341.103 306.974 340.162 306.952 339.341 307.947 L 339.251 308.053 L 325.234 307.929 C 323.63 308.32 321.478 309.224 320.728 310.868 C 320.239 311.942 320.214 314.025 320.05 315.243 C 319.102 313.903 318.987 312.111 318.181 310.672 C 317.758 309.916 317.088 309.892 316.32 309.677 L 314.878 309.047 C 312.368 307.953 309.778 308.164 307.102 308.157 C 302.714 308.145 298.069 308.472 293.76 307.53 C 293.189 308.13 292.526 309.037 291.86 309.498 C 290.356 309.666 288.994 309.507 287.503 309.315 L 288.43 310.842 C 288.715 311.932 289.021 313.066 289.095 314.193 C 289.384 318.576 289.128 323.102 289.094 327.505 C 289.078 329.587 289.305 331.859 289.094 333.922 C 289.042 334.427 288.79 335.021 288.5 335.438 C 287.024 337.565 282.922 337.51 280.59 337.892 L 280.442 337.779 C 279.228 337.253 277.229 337.411 275.916 337.35 C 273.208 337.225 269.779 336.665 267.133 337.239 L 267.067 338.099 L 265.59 339.218 C 262.915 339.68 259.999 339.898 257.301 339.545 L 257.41 321.043 L 257.503 274.905 L 257.596 251.756 C 257.618 247.313 257.384 242.761 257.908 238.347 C 257.572 235.794 257.848 233.116 257.854 230.54 L 257.898 214.922 C 257.925 212.851 258.275 210.638 258.014 208.589 C 257.814 207.016 257.596 205.521 257.175 203.989 L 257.186 170.838 Z" transform="matrix(1, 0, 0, 1, -7.105427357601002e-15, 0)"/>
  <path fill="#F6C855" d="M 373.594 246.04 C 374.513 246.121 375.501 246.094 376.263 246.667 C 377.106 247.738 376.864 249.746 376.839 251.062 C 376.72 250.585 376.76 249.681 376.566 249.297 C 376.095 248.361 374.346 246.895 373.594 246.04 Z" transform="matrix(1, 0, 0, 1, -7.105427357601002e-15, 0)"/>
  <path fill="#F4E3A1" d="M 349.648 205.768 C 350.977 206.838 351.934 208.15 352.081 209.922 C 352.115 210.333 352.09 210.376 352.03 210.726 C 351.18 210.694 350.247 210.847 349.587 210.297 L 349.648 205.768 Z" transform="matrix(1, 0, 0, 1, -7.105427357601002e-15, 0)"/>
  <path fill="#F89525" d="M 357.888 246.35 C 359.542 246.126 361.334 246.199 363.01 246.153 L 373.594 246.04 C 374.346 246.895 376.095 248.361 376.566 249.297 C 376.76 249.681 376.72 250.585 376.839 251.062 L 376.866 265.547 C 375.231 264.404 373.913 262.036 372.427 260.599 L 361.013 250.423 C 360.105 249.562 358.969 248.622 358.43 247.478 L 357.888 246.35 Z" transform="matrix(1, 0, 0, 1, -7.105427357601002e-15, 0)"/>
  <path fill="#EC6D2C" d="M 349.606 249.283 C 349.671 248.451 349.796 247.692 350.133 246.922 C 352.014 245.532 355.714 246.054 357.888 246.35 L 358.43 247.478 C 358.969 248.622 360.105 249.562 361.013 250.423 L 372.427 260.599 C 373.913 262.036 375.231 264.404 376.866 265.547 L 377.068 270.701 C 376.096 272.574 375.446 274.007 374.013 275.632 L 372.733 275.895 C 368.355 275.196 363.224 275.694 358.752 275.69 C 356.581 275.688 353.181 276.162 351.446 274.636 C 350.034 273.393 349.929 270.795 349.737 269.032 L 349.584 270.365 L 347.421 271.335 C 346.86 271.601 347.122 271.535 346.531 271.554 C 346.983 269.972 347.163 268.329 347.343 266.698 C 347.809 267.033 347.997 267.297 348.59 267.297 L 349.113 265.67 C 349.554 264.515 349.35 263.011 349.347 261.76 L 349.327 254.059 C 349.331 252.467 349.238 250.843 349.606 249.283 Z" transform="matrix(1, 0, 0, 1, -7.105427357601002e-15, 0)"/>
  <path fill="#F4E3A1" d="M 347.343 266.698 C 347.809 267.033 347.997 267.297 348.59 267.297 L 349.113 265.67 C 349.554 264.515 349.35 263.011 349.347 261.76 L 349.327 254.059 C 349.331 252.467 349.238 250.843 349.606 249.283 L 349.737 269.032 L 349.584 270.365 L 347.421 271.335 C 346.86 271.601 347.122 271.535 346.531 271.554 C 346.983 269.972 347.163 268.329 347.343 266.698 Z" transform="matrix(1, 0, 0, 1, -7.105427357601002e-15, 0)"/>
  <path fill="#F89525" d="M 321.544 251.11 C 321.754 249.337 322.101 247.867 322.749 246.203 C 323.467 245.694 325.969 245.985 327.008 245.979 L 342.308 245.929 C 343.488 245.976 344.673 246.176 345.836 246.374 L 347.027 246.583 C 347.594 249.382 347.181 252.219 347.205 255.053 L 347.343 266.698 C 347.163 268.329 346.983 269.972 346.531 271.554 C 346.069 272.241 345.601 273.003 344.911 273.485 C 344.118 274.039 341.129 274.888 340.923 275.797 C 340.526 275.959 340.196 276.102 339.763 276.147 C 337.83 276.345 325.947 276.541 324.861 275.655 L 324.638 275.456 C 323.194 274.235 322.68 273.095 322.24 271.273 C 321.614 264.63 323.185 257.947 321.782 251.429 L 321.544 251.11 Z" transform="matrix(1, 0, 0, 1, -7.105427357601002e-15, 0)"/>
  <path fill="#EC6D2C" d="M 321.782 251.429 C 323.803 252.884 324.868 255.425 326.363 257.398 C 331.083 263.625 335.528 270.13 340.923 275.797 C 340.526 275.959 340.196 276.102 339.763 276.147 C 337.83 276.345 325.947 276.541 324.861 275.655 L 324.638 275.456 C 323.194 274.235 322.68 273.095 322.24 271.273 C 321.614 264.63 323.185 257.947 321.782 251.429 Z" transform="matrix(1, 0, 0, 1, -7.105427357601002e-15, 0)"/>
  <path fill="#F6C855" d="M 321.662 212.81 L 347.625 213.171 L 347.581 243.427 L 321.669 243.423 L 321.662 212.81 Z" transform="matrix(1, 0, 0, 1, -7.105427357601002e-15, 0)"/>
  <path fill="#F6C855" d="M 294.864 213.02 L 319.444 212.908 L 319.444 233.063 C 319.451 235.619 319.666 238.212 319.578 240.761 C 319.548 241.654 319.541 242.751 319.111 243.547 L 318.2 243.673 L 292.509 243.595 C 292.906 236.92 292.551 230.098 292.456 223.408 L 292.371 216.864 C 292.358 215.643 292.207 214.25 292.888 213.21 L 294.864 213.02 Z" transform="matrix(1, 0, 0, 1, -7.105427357601002e-15, 0)"/>
  <path fill="#F6C855" d="M 350.226 213.047 C 353.115 212.554 356.435 212.87 359.378 212.902 L 377.136 213.18 L 376.885 243.047 L 376.263 243.422 L 349.419 243.427 L 349.496 215.096 C 349.568 214.12 349.446 213.713 350.226 213.047 Z" transform="matrix(1, 0, 0, 1, -7.105427357601002e-15, 0)"/>
  <path fill="#F89525" d="M 294.075 246.672 C 294.545 246.345 295.064 246.057 295.638 245.966 C 297.91 245.606 300.642 245.947 302.962 245.977 L 319.134 246.171 L 319.352 248.799 C 320.075 249.59 320.738 250.401 321.544 251.11 L 321.782 251.429 C 323.185 257.947 321.614 264.63 322.24 271.273 C 320.922 271.649 320.629 271.512 319.291 271.124 C 319.042 273.023 318.851 273.935 317.263 275.161 C 317.039 275.334 316.272 275.886 315.991 275.918 C 315.384 275.987 314.397 275.736 313.763 275.675 L 309.667 275.402 C 305.112 275.145 300.421 275.053 295.867 275.323 C 295.449 274.649 294.708 274.202 294.29 273.516 C 293.505 272.228 293.139 270.811 292.115 269.661 C 291.687 270.116 291.809 270.155 291.138 270.209 C 290.3 269.51 290.23 269.043 289.856 268.037 L 289.845 266.808 L 289.871 255.984 C 289.885 253.707 290.192 251.398 289.94 249.133 L 289.886 248.672 C 289.782 247.739 289.396 247.174 288.872 246.418 C 290.386 246.082 292.199 246.268 293.754 246.284 L 294.075 246.672 Z" transform="matrix(1, 0, 0, 1, -7.105427357601002e-15, 0)"/>
  <path fill="#F4E3A1" d="M 319.352 248.799 C 320.075 249.59 320.738 250.401 321.544 251.11 L 321.782 251.429 C 323.185 257.947 321.614 264.63 322.24 271.273 C 320.922 271.649 320.629 271.512 319.291 271.124 C 319.609 268.532 319.306 265.621 319.306 262.99 L 319.352 248.799 Z" transform="matrix(1, 0, 0, 1, -7.105427357601002e-15, 0)"/>
  <path fill="#FEFFFE" d="M 288.872 246.418 C 290.386 246.082 292.199 246.268 293.754 246.284 L 294.075 246.672 C 292.843 247.814 292.463 248.623 292.402 250.297 C 292.183 256.34 292.94 262.684 292.229 268.672 L 292.115 269.661 C 291.687 270.116 291.809 270.155 291.138 270.209 C 290.3 269.51 290.23 269.043 289.856 268.037 L 289.845 266.808 L 289.871 255.984 C 289.885 253.707 290.192 251.398 289.94 249.133 L 289.886 248.672 C 289.782 247.739 289.396 247.174 288.872 246.418 Z" transform="matrix(1, 0, 0, 1, -7.105427357601002e-15, 0)"/>
  <path fill="#EC6D2C" d="M 289.856 268.037 C 290.23 269.043 290.3 269.51 291.138 270.209 C 291.809 270.155 291.687 270.116 292.115 269.661 C 293.139 270.811 293.505 272.228 294.29 273.516 C 294.708 274.202 295.449 274.649 295.867 275.323 C 300.421 275.053 305.112 275.145 309.667 275.402 L 313.763 275.675 C 314.397 275.736 315.384 275.987 315.991 275.918 C 316.272 275.886 317.039 275.334 317.263 275.161 C 318.851 273.935 319.042 273.023 319.291 271.124 C 320.629 271.512 320.922 271.649 322.24 271.273 C 322.68 273.095 323.194 274.235 324.638 275.456 L 324.861 275.655 C 325.947 276.541 337.83 276.345 339.763 276.147 C 340.196 276.102 340.526 275.959 340.923 275.797 C 341.129 274.888 344.118 274.039 344.911 273.485 C 345.601 273.003 346.069 272.241 346.531 271.554 C 347.122 271.535 346.86 271.601 347.421 271.335 L 349.584 270.365 L 349.737 269.032 C 349.929 270.795 350.034 273.393 351.446 274.636 C 353.181 276.162 356.581 275.688 358.752 275.69 C 363.224 275.694 368.355 275.196 372.733 275.895 C 372.987 276.606 373.181 276.886 373.013 277.635 C 371.57 278.681 361.724 278.197 359.544 278.2 C 358.033 278.202 356.039 278.451 354.572 278.148 C 354.12 278.055 353.874 277.896 353.513 277.624 C 352.686 277.822 351.647 278.844 351.176 279.547 C 350.873 280 350.677 280.492 350.503 281.004 L 350.05 280.156 L 350.566 278.797 L 350.275 278.977 C 349.085 279.648 345.631 279.206 344.293 278.849 L 346.272 281.524 C 347.197 282.747 346.57 299.354 346.193 301.505 C 346.063 302.245 345.941 302.985 345.626 303.672 L 345.498 303.958 C 345.04 304.967 344.565 305.944 343.513 306.446 L 342.307 306.81 C 341.103 306.974 340.162 306.952 339.341 307.947 L 339.251 308.053 L 325.234 307.929 C 323.63 308.32 321.478 309.224 320.728 310.868 C 320.239 311.942 320.214 314.025 320.05 315.243 C 319.102 313.903 318.987 312.111 318.181 310.672 C 317.758 309.916 317.088 309.892 316.32 309.677 L 314.878 309.047 C 312.368 307.953 309.778 308.164 307.102 308.157 C 302.714 308.145 298.069 308.472 293.76 307.53 L 294.477 307.148 L 294.413 306.404 C 293.187 305.021 292.04 302.999 291.827 301.164 C 291.152 301.711 290.415 301.889 289.593 302.137 L 289.773 299.381 C 289.912 295.679 290.778 281.193 288.45 278.923 C 286.302 276.828 280.616 277.889 277.855 277.907 L 267.569 277.906 C 268.272 277.223 268.695 276.665 269.087 275.763 C 273.496 276.668 278.371 276.26 282.852 275.984 C 283.794 275.926 286.061 275.941 286.797 275.387 C 288.704 273.952 289.302 270.23 289.856 268.037 Z" transform="matrix(1, 0, 0, 1, -7.105427357601002e-15, 0)"/>
  <path fill="#F6692F" d="M 315.014 295.203 L 315.568 295.631 L 317.9 298.144 L 318.24 297.442 C 318.824 296.55 320.944 296.626 321.934 296.514 C 322.098 299.396 322.174 302.27 323.069 305.044 C 323.646 305.373 323.967 305.782 324.375 306.288 L 324.394 306.406 C 324.648 306.946 324.904 307.428 325.234 307.929 C 323.63 308.32 321.478 309.224 320.728 310.868 C 320.239 311.942 320.214 314.025 320.05 315.243 C 319.102 313.903 318.987 312.111 318.181 310.672 C 317.758 309.916 317.088 309.892 316.32 309.677 L 314.878 309.047 C 312.368 307.953 309.778 308.164 307.102 308.157 C 302.714 308.145 298.069 308.472 293.76 307.53 L 294.477 307.148 L 294.413 306.404 L 306.99 306.248 C 308.703 306.244 310.907 306.463 312.566 306.081 C 313.618 305.839 314.595 305.335 315.128 304.355 C 315.556 303.568 315.46 302.523 315.457 301.652 C 315.449 299.528 315.559 297.268 315.014 295.203 Z" transform="matrix(1, 0, 0, 1, -7.105427357601002e-15, 0)"/>
  <path fill="#F89525" d="M 317.9 298.144 L 318.24 297.442 C 318.824 296.55 320.944 296.626 321.934 296.514 C 322.098 299.396 322.174 302.27 323.069 305.044 C 322.191 304.633 321.487 303.631 321.023 302.802 C 320.105 301.158 319.096 299.599 317.9 298.144 Z" transform="matrix(1, 0, 0, 1, -7.105427357601002e-15, 0)"/>
  <path fill="#FA9228" d="M 289.856 268.037 C 290.23 269.043 290.3 269.51 291.138 270.209 C 291.809 270.155 291.687 270.116 292.115 269.661 C 293.139 270.811 293.505 272.228 294.29 273.516 C 294.708 274.202 295.449 274.649 295.867 275.323 C 296.124 276.229 296.468 276.863 297.013 277.629 C 300.782 278.275 304.698 278.212 308.513 278.191 L 312.712 278.087 C 313 278.08 313.99 277.962 314.219 278.053 C 314.433 278.138 315.102 279.084 315.263 279.299 C 315.53 279.657 315.7 280.034 315.912 280.422 L 316.094 280.73 C 317.477 283.259 316.323 287.291 316.12 290.047 C 316.03 291.263 316.254 292.453 315.865 293.635 L 315.747 293.971 C 315.57 294.512 315.574 295.067 315.568 295.631 L 315.014 295.203 C 313.67 292.827 311.046 291.191 309.086 289.347 C 307.367 287.731 306.019 285.924 304.134 284.457 C 302.691 283.333 301.375 282.144 300.077 280.855 C 299.218 280.003 298.086 278.72 297.017 278.138 C 296.563 277.891 295.761 277.87 295.263 277.964 C 294.151 278.175 293.109 279.269 292.576 280.206 C 290.696 283.514 291.945 296.741 291.827 301.164 C 291.152 301.711 290.415 301.889 289.593 302.137 L 289.773 299.381 C 289.912 295.679 290.778 281.193 288.45 278.923 C 286.302 276.828 280.616 277.889 277.855 277.907 L 267.569 277.906 C 268.272 277.223 268.695 276.665 269.087 275.763 C 273.496 276.668 278.371 276.26 282.852 275.984 C 283.794 275.926 286.061 275.941 286.797 275.387 C 288.704 273.952 289.302 270.23 289.856 268.037 Z" transform="matrix(1, 0, 0, 1, -7.105427357601002e-15, 0)"/>
  <path fill="url(#gradient_3)" d="M 349.737 269.032 C 349.929 270.795 350.034 273.393 351.446 274.636 C 353.181 276.162 356.581 275.688 358.752 275.69 C 363.224 275.694 368.355 275.196 372.733 275.895 C 372.987 276.606 373.181 276.886 373.013 277.635 C 371.57 278.681 361.724 278.197 359.544 278.2 C 358.033 278.202 356.039 278.451 354.572 278.148 C 354.12 278.055 353.874 277.896 353.513 277.624 C 352.686 277.822 351.647 278.844 351.176 279.547 C 350.873 280 350.677 280.492 350.503 281.004 L 350.05 280.156 L 350.566 278.797 L 350.275 278.977 C 349.085 279.648 345.631 279.206 344.293 278.849 C 343.613 278.463 342.765 277.878 341.991 277.721 C 339.332 277.179 335.854 277.866 333.138 277.926 C 330.532 277.983 326.912 277.404 324.448 278.032 C 323.719 278.218 322.83 279.159 322.504 279.81 C 321.4 282.018 322.007 288.85 322.028 291.469 L 321.934 296.514 C 320.944 296.626 318.824 296.55 318.24 297.442 L 317.9 298.144 L 315.568 295.631 C 315.574 295.067 315.57 294.512 315.747 293.971 L 315.865 293.635 C 316.254 292.453 316.03 291.263 316.12 290.047 C 316.323 287.291 317.477 283.259 316.094 280.73 L 315.912 280.422 C 315.7 280.034 315.53 279.657 315.263 279.299 C 315.102 279.084 314.433 278.138 314.219 278.053 C 313.99 277.962 313 278.08 312.712 278.087 L 308.513 278.191 C 304.698 278.212 300.782 278.275 297.013 277.629 C 296.468 276.863 296.124 276.229 295.867 275.323 C 300.421 275.053 305.112 275.145 309.667 275.402 L 313.763 275.675 C 314.397 275.736 315.384 275.987 315.991 275.918 C 316.272 275.886 317.039 275.334 317.263 275.161 C 318.851 273.935 319.042 273.023 319.291 271.124 C 320.629 271.512 320.922 271.649 322.24 271.273 C 322.68 273.095 323.194 274.235 324.638 275.456 L 324.861 275.655 C 325.947 276.541 337.83 276.345 339.763 276.147 C 340.196 276.102 340.526 275.959 340.923 275.797 C 341.129 274.888 344.118 274.039 344.911 273.485 C 345.601 273.003 346.069 272.241 346.531 271.554 C 347.122 271.535 346.86 271.601 347.421 271.335 L 349.584 270.365 L 349.737 269.032 Z" transform="matrix(1, 0, 0, 1, -7.105427357601002e-15, 0)"/>
  <path fill="#EC6D2C" d="M 321.934 296.514 L 322.028 291.469 C 322.007 288.85 321.4 282.018 322.504 279.81 C 322.83 279.159 323.719 278.218 324.448 278.032 C 326.912 277.404 330.532 277.983 333.138 277.926 C 335.854 277.866 339.332 277.179 341.991 277.721 C 342.765 277.878 343.613 278.463 344.293 278.849 L 346.272 281.524 C 347.197 282.747 346.57 299.354 346.193 301.505 C 346.063 302.245 345.941 302.985 345.626 303.672 L 345.498 303.958 C 345.04 304.967 344.565 305.944 343.513 306.446 L 342.307 306.81 C 341.103 306.974 340.162 306.952 339.341 307.947 L 339.251 308.053 L 325.234 307.929 C 324.904 307.428 324.648 306.946 324.394 306.406 L 324.375 306.288 C 323.967 305.782 323.646 305.373 323.069 305.044 C 322.174 302.27 322.098 299.396 321.934 296.514 Z" transform="matrix(1, 0, 0, 1, -7.105427357601002e-15, 0)"/>
  <path fill="#FD8028" d="M 324.394 306.406 C 325.211 306.597 325.989 306.713 326.828 306.718 C 329.819 306.737 332.733 306.111 335.744 306.144 C 337.963 306.168 340.105 306.837 342.307 306.81 C 341.103 306.974 340.162 306.952 339.341 307.947 L 339.251 308.053 L 325.234 307.929 C 324.904 307.428 324.648 306.946 324.394 306.406 Z" transform="matrix(1, 0, 0, 1, -7.105427357601002e-15, 0)"/>
  <path fill="#FD8028" d="M 257.908 238.347 C 259.03 239.34 264.633 243.729 264.849 244.503 C 265.936 245.586 266.596 245.687 268.089 245.896 L 268.968 245.956 C 271.891 245.972 287.219 245.62 288.872 246.418 C 289.396 247.174 289.782 247.739 289.886 248.672 L 289.94 249.133 C 290.192 251.398 289.885 253.707 289.871 255.984 L 289.845 266.808 L 289.856 268.037 C 289.302 270.23 288.704 273.952 286.797 275.387 C 286.061 275.941 283.794 275.926 282.852 275.984 C 278.371 276.26 273.496 276.668 269.087 275.763 C 268.695 276.665 268.272 277.223 267.569 277.906 L 277.855 277.907 C 280.616 277.889 286.302 276.828 288.45 278.923 C 290.778 281.193 289.912 295.679 289.773 299.381 L 289.593 302.137 C 290.415 301.889 291.152 301.711 291.827 301.164 C 292.04 302.999 293.187 305.021 294.413 306.404 L 294.477 307.148 L 293.76 307.53 C 293.189 308.13 292.526 309.037 291.86 309.498 C 290.356 309.666 288.994 309.507 287.503 309.315 L 288.43 310.842 C 288.715 311.932 289.021 313.066 289.095 314.193 C 289.384 318.576 289.128 323.102 289.094 327.505 C 289.078 329.587 289.305 331.859 289.094 333.922 C 289.042 334.427 288.79 335.021 288.5 335.438 C 287.024 337.565 282.922 337.51 280.59 337.892 L 280.442 337.779 C 279.228 337.253 277.229 337.411 275.916 337.35 C 273.208 337.225 269.779 336.665 267.133 337.239 L 267.067 338.099 L 265.59 339.218 C 262.915 339.68 259.999 339.898 257.301 339.545 L 257.41 321.043 L 257.503 274.905 L 257.596 251.756 C 257.618 247.313 257.384 242.761 257.908 238.347 Z" transform="matrix(1, 0, 0, 1, -7.105427357601002e-15, 0)"/>
  <path fill="#EC6D2C" d="M 277.38 307.959 C 278.507 307.24 280.187 306.397 281.514 306.689 C 283.118 307.042 283.973 307.394 285.211 308.519 C 282.609 308.053 279.968 308.412 277.38 307.959 Z" transform="matrix(1, 0, 0, 1, -7.105427357601002e-15, 0)"/>
  <path fill="#EC6D2C" d="M 267.569 277.906 L 277.855 277.907 C 280.616 277.889 286.302 276.828 288.45 278.923 C 290.778 281.193 289.912 295.679 289.773 299.381 L 289.593 302.137 C 289.263 303.367 288.968 304.383 288.015 305.279 C 287.608 305.661 287.133 305.994 286.574 306.1 C 283.968 306.593 280.502 306.135 277.811 306.046 L 267.563 305.924 C 266.984 305.582 266.388 305.238 265.931 304.735 C 265.34 304.084 265.035 303.456 264.867 302.59 C 264.423 300.299 264.838 297.631 264.86 295.297 L 264.936 280.431 C 265.59 279.347 266.424 278.458 267.569 277.906 Z" transform="matrix(1, 0, 0, 1, -7.105427357601002e-15, 0)"/>
  <path fill="#F24645" d="M 277.38 307.959 C 279.968 308.412 282.609 308.053 285.211 308.519 L 287.503 309.315 L 288.43 310.842 C 288.715 311.932 289.021 313.066 289.095 314.193 C 289.384 318.576 289.128 323.102 289.094 327.505 C 289.078 329.587 289.305 331.859 289.094 333.922 C 289.042 334.427 288.79 335.021 288.5 335.438 C 287.024 337.565 282.922 337.51 280.59 337.892 L 280.442 337.779 C 279.228 337.253 277.229 337.411 275.916 337.35 C 273.208 337.225 269.779 336.665 267.133 337.239 C 265.372 335.594 264.232 333.865 263.949 331.422 C 263.612 328.523 264.129 325.459 264.213 322.547 L 264.387 314.95 C 264.419 313.83 264.349 312.131 264.696 311.082 C 264.778 310.836 265.217 310.35 265.381 310.147 C 267.527 307.493 269.589 308.443 272.484 308.39 C 274.112 308.36 275.763 308.14 277.38 307.959 Z" transform="matrix(1, 0, 0, 1, -7.105427357601002e-15, 0)"/>
  <path fill="#EC6D2C" d="M 268.089 245.896 L 268.968 245.956 C 271.891 245.972 287.219 245.62 288.872 246.418 C 289.396 247.174 289.782 247.739 289.886 248.672 L 289.94 249.133 C 290.192 251.398 289.885 253.707 289.871 255.984 L 289.845 266.808 L 289.856 268.037 C 289.302 270.23 288.704 273.952 286.797 275.387 C 286.061 275.941 283.794 275.926 282.852 275.984 C 278.371 276.26 273.496 276.668 269.087 275.763 C 268.136 275.305 267.32 274.741 266.584 273.975 C 266.077 273.448 265.617 272.776 265.404 272.071 C 264.514 269.137 264.95 265.272 265.047 262.221 L 265.147 254.012 C 265.164 252.661 264.894 250.438 265.221 249.172 C 265.475 248.19 267.354 246.613 268.089 245.896 Z" transform="matrix(1, 0, 0, 1, -7.105427357601002e-15, 0)"/>
  <path fill="#F89525" d="M 268.968 245.956 C 271.891 245.972 287.219 245.62 288.872 246.418 C 289.396 247.174 289.782 247.739 289.886 248.672 L 289.94 249.133 C 290.192 251.398 289.885 253.707 289.871 255.984 L 289.845 266.808 L 268.968 245.956 Z" transform="matrix(1, 0, 0, 1, -7.105427357601002e-15, 0)"/>
  <path fill="#F6C855" d="M 257.186 170.838 L 416.897 170.674 L 416.791 291.229 L 416.619 291.375 L 416.652 305.767 L 407.073 297.026 C 406.651 296.663 404.83 295.532 404.643 295.178 C 404.529 294.963 404.605 293.685 404.593 293.375 L 404.215 287.797 C 404.153 285.997 404.39 283.833 403.874 282.111 C 403.554 281.045 403.012 280.368 402.215 279.594 C 401.655 279.049 400.53 278.216 399.778 278.016 C 398.982 277.804 397.72 277.979 396.89 278.007 L 390.293 278.245 C 388.576 277.942 386.98 277.682 385.356 277.02 C 385.93 276.605 386.357 276.34 387.05 276.181 L 387.388 276.109 C 389.201 275.702 391.031 275.563 392.888 275.561 C 394.921 275.558 400.2 276.321 401.785 275.123 C 402.701 274.431 403.218 272.806 403.411 271.718 L 403.461 271.422 L 403.645 269.922 C 403.864 265.64 403.661 261.253 403.653 256.958 C 403.648 254.366 404.017 251.172 403.379 248.672 C 403.15 247.775 402.522 247.155 401.912 246.489 L 403.138 246.246 C 403.797 246.036 403.857 246.011 404.124 245.422 C 403.808 244.502 402.901 243.821 402.213 243.161 C 399.11 243.546 395.906 243.419 392.783 243.4 L 379.113 243.297 L 379.055 213.167 L 403.299 213.386 L 403.332 213.196 L 401.775 211.135 L 378.947 210.635 C 379.189 206.396 378.956 202.169 378.996 197.928 L 379.102 189.031 C 379.103 188.024 379.31 186.668 378.823 185.797 L 377.888 185.699 L 377.513 186.005 C 376.57 189.571 376.955 193.587 376.988 197.259 L 377.077 210.649 L 352.03 210.726 C 352.09 210.376 352.115 210.333 352.081 209.922 C 351.934 208.15 350.977 206.838 349.648 205.768 L 349.602 190.817 C 349.598 189.566 349.924 186.753 349.263 185.851 L 348.263 185.68 C 348.139 185.802 347.945 185.881 347.891 186.047 C 347.535 187.134 347.821 189.589 347.798 190.801 L 347.486 207.982 L 347.432 210.386 C 347.429 210.501 347.512 210.657 347.423 210.731 C 347.321 210.817 347.156 210.73 347.023 210.73 L 324.118 210.635 L 321.763 210.625 C 321.547 210.325 321.46 210.204 321.376 209.834 C 321.004 209.702 320.656 209.624 320.267 209.558 L 319.651 210.091 L 319.263 210.585 L 292.584 210.92 L 292.62 195.137 C 292.63 192.982 292.714 190.791 292.534 188.643 C 292.491 188.127 292.489 187.175 292.303 186.703 C 292.203 186.452 291.985 186.266 291.826 186.047 L 291.18 185.992 C 289.98 187.26 290.404 202.812 290.476 205.511 L 290.558 210.698 L 290.518 212.837 C 290.007 213.291 288.794 213.077 288.079 213.197 L 290.263 213.414 C 291.001 214.719 290.163 239.91 290.149 243.683 L 272.138 243.737 C 269.941 243.802 266.808 243.541 264.849 244.503 C 264.633 243.729 259.03 239.34 257.908 238.347 C 257.572 235.794 257.848 233.116 257.854 230.54 L 257.898 214.922 C 257.925 212.851 258.275 210.638 258.014 208.589 C 257.814 207.016 257.596 205.521 257.175 203.989 L 257.186 170.838 Z" transform="matrix(1, 0, 0, 1, -7.105427357601002e-15, 0)"/>
  <path fill="#FEFFFE" d="M 319.651 210.091 L 319.691 193.729 C 319.701 191.294 319.316 188.003 319.893 185.672 C 320.512 185.381 320.593 185.497 321.263 185.683 C 321.926 186.771 321.405 190.775 321.404 192.172 L 321.376 209.834 C 321.004 209.702 320.656 209.624 320.267 209.558 L 319.651 210.091 Z" transform="matrix(1, 0, 0, 1, -7.105427357601002e-15, 0)"/>
  <path fill="#FEFFFE" d="M 288.079 213.197 C 286.639 213.304 284.944 212.938 283.445 212.932 L 273.469 213.078 C 271.539 213.119 269.401 213.336 267.513 212.924 C 266.758 212.76 266.632 212.553 266.209 211.922 L 266.513 211.453 C 267.322 211.161 268.041 211.012 268.888 210.887 C 272.025 210.425 275.207 210.71 278.357 210.86 L 285.185 210.925 C 286.872 210.929 288.668 211.053 290.33 210.745 L 290.558 210.698 L 290.518 212.837 C 290.007 213.291 288.794 213.077 288.079 213.197 Z" transform="matrix(1, 0, 0, 1, -7.105427357601002e-15, 0)"/>
  <path fill="#FEFFFE" d="M 74.837 139.165 L 257.119 138.923 L 257.186 170.838 L 257.175 203.989 C 257.596 205.521 257.814 207.016 258.014 208.589 C 258.275 210.638 257.925 212.851 257.898 214.922 L 257.854 230.54 C 257.848 233.116 257.572 235.794 257.908 238.347 C 257.384 242.761 257.618 247.313 257.596 251.756 L 257.503 274.905 L 257.41 321.043 L 257.301 339.545 L 257.476 340.892 C 257.162 341.067 256.885 341.188 256.52 341.207 C 250.626 341.512 244.555 341.205 238.643 341.214 L 196.181 341.392 L 195.156 341.428 L 129.349 341.47 L 110.908 341.473 C 107.699 341.472 104.1 341.785 100.957 341.254 C 95.105 340.267 87.428 337.335 83.191 333.076 C 78.99 328.852 76.147 323.237 75.229 317.354 C 74.794 314.565 74.881 311.735 74.884 308.921 L 74.933 297.012 L 74.868 263.912 L 74.837 139.165 Z" transform="matrix(1, 0, 0, 1, -7.105427357601002e-15, 0)"/>
  <path fill="#58768E" d="M 210.794 156.759 C 212.634 158.081 214.214 159.872 215.82 161.468 L 223.614 169.224 L 229.763 175.356 C 230.927 176.519 232.251 177.673 233.235 178.989 L 211.237 178.903 L 210.794 156.759 Z" transform="matrix(1, 0, 0, 1, -7.105427357601002e-15, 0)"/>
  <path fill="#48B18A" d="M 86.975 277.914 L 106.77 278.103 L 112.554 278.137 C 113.492 278.143 114.749 277.996 115.629 278.292 L 115.441 300.036 L 115.404 304.387 C 115.4 304.848 115.506 305.746 115.388 306.166 C 115.333 306.364 115.138 306.493 115.013 306.656 L 99.033 306.662 C 95.129 306.683 91.347 306.975 87.461 306.359 C 87.021 305.376 87.036 303.937 86.979 302.864 C 86.779 299.106 87.1 295.322 87.11 291.56 L 86.975 277.914 Z" transform="matrix(1, 0, 0, 1, -7.105427357601002e-15, 0)"/>
  <path fill="#58768E" d="M 240.534 278.047 L 241.099 278.297 L 240.937 306.652 L 222.01 306.576 C 219.001 306.567 215.721 306.954 212.763 306.417 L 212.464 306.264 C 211.912 305.807 211.949 303.872 211.937 303.172 L 212.14 295.804 L 212.335 278.175 L 240.534 278.047 Z" transform="matrix(1, 0, 0, 1, -7.105427357601002e-15, 0)"/>
  <path fill="#48B18A" d="M 115.318 275.97 C 111.852 275.477 108.207 275.664 104.707 275.642 L 87.142 275.543 L 87.107 258.413 C 87.099 254.328 86.97 250.255 87.437 246.189 L 115.623 245.961 L 115.588 266.098 C 115.576 269.157 116.005 273.031 115.318 275.97 Z" transform="matrix(1, 0, 0, 1, -7.105427357601002e-15, 0)"/>
  <path fill="#58768E" d="M 212.184 246.2 L 241.061 246.054 L 240.889 275.408 L 212.154 275.539 L 212.184 246.2 Z" transform="matrix(1, 0, 0, 1, -7.105427357601002e-15, 0)"/>
  <path fill="#58768E" d="M 148.993 278.04 L 178.615 278.035 C 179.408 280.445 178.754 284.429 178.739 287.009 L 178.711 306.524 L 149.066 306.667 L 148.993 278.04 Z" transform="matrix(1, 0, 0, 1, -7.105427357601002e-15, 0)"/>
  <path fill="#58768E" d="M 180.538 277.917 L 210.389 278.047 L 210.105 306.461 L 180.441 306.554 L 180.538 277.917 Z" transform="matrix(1, 0, 0, 1, -7.105427357601002e-15, 0)"/>
  <path fill="#58768E" d="M 216.399 213.78 L 241.093 213.931 L 241.043 243.602 L 237.7 243.583 L 212.143 243.67 L 211.982 213.997 L 216.399 213.78 Z" transform="matrix(1, 0, 0, 1, -7.105427357601002e-15, 0)"/>
  <path fill="#48B18A" d="M 117.147 277.919 L 147.168 277.914 L 147.406 298.215 C 147.419 300.243 147.949 304.61 147.102 306.297 C 146.722 306.584 146.501 306.686 146.013 306.756 C 145.157 306.879 144.017 306.709 143.14 306.69 L 137.099 306.591 L 117.403 306.666 C 117.075 305.968 117.143 305.036 117.104 304.267 C 116.971 301.63 117.122 298.991 117.133 296.352 L 117.147 277.919 Z" transform="matrix(1, 0, 0, 1, -7.105427357601002e-15, 0)"/>
  <path fill="#58768E" d="M 211.587 181.174 L 241.132 181.178 L 240.898 211.312 L 211.985 211.42 C 211.437 201.404 212.713 191.172 211.587 181.174 Z" transform="matrix(1, 0, 0, 1, -7.105427357601002e-15, 0)"/>
  <path fill="#58768E" d="M 180.41 245.917 L 210.314 246.068 L 210.217 275.426 L 180.383 275.55 L 180.41 245.917 Z" transform="matrix(1, 0, 0, 1, -7.105427357601002e-15, 0)"/>
  <path fill="#58768E" d="M 149.062 245.917 L 178.655 245.92 L 178.606 275.502 L 148.875 275.666 L 149.062 245.917 Z" transform="matrix(1, 0, 0, 1, -7.105427357601002e-15, 0)"/>
  <path fill="#58768E" d="M 148.969 213.921 L 178.917 213.806 C 178.232 220.526 178.599 227.581 178.612 234.341 C 178.618 237.414 178.732 240.512 178.338 243.565 C 175.171 243.927 171.693 243.62 168.497 243.592 L 148.887 243.417 L 148.969 213.921 Z" transform="matrix(1, 0, 0, 1, -7.105427357601002e-15, 0)"/>
  <path fill="#58768E" d="M 180.427 213.915 L 210.207 213.921 L 210.133 243.661 L 180.374 243.546 L 180.427 213.915 Z" transform="matrix(1, 0, 0, 1, -7.105427357601002e-15, 0)"/>
  <path fill="#48B18A" d="M 117.366 213.673 L 147.36 213.916 L 147.128 242.797 L 146.873 243.281 C 145.981 243.53 144.9 243.417 143.972 243.417 L 138.911 243.42 L 117.292 243.425 L 117.366 213.673 Z" transform="matrix(1, 0, 0, 1, -7.105427357601002e-15, 0)"/>
  <path fill="#58768E" d="M 180.798 180.919 L 210.126 180.922 L 210.135 211.423 L 180.638 211.421 L 180.798 180.919 Z" transform="matrix(1, 0, 0, 1, -7.105427357601002e-15, 0)"/>
  <path fill="#48B18A" d="M 149.316 180.796 L 149.623 180.824 L 178.91 180.917 L 178.887 211.422 L 163.502 211.454 L 151.321 211.523 L 149.263 211.515 L 148.933 211.172 L 149.125 190.878 C 148.943 189.072 149.108 187.074 149.115 185.249 C 149.12 183.828 148.954 182.163 149.316 180.796 Z" transform="matrix(1, 0, 0, 1, -7.105427357601002e-15, 0)"/>
  <path fill="#58768E" d="M 149.125 190.878 C 150.407 192.494 151.232 194.573 152.201 196.396 C 153.42 198.691 154.831 200.953 156.316 203.084 C 157.419 204.668 158.653 206.197 160.009 207.572 C 161.323 208.903 162.548 209.805 163.502 211.454 L 151.321 211.523 L 149.263 211.515 L 148.933 211.172 L 149.125 190.878 Z" transform="matrix(1, 0, 0, 1, -7.105427357601002e-15, 0)"/>
  <path fill="#48B18A" d="M 115.623 245.961 C 116.886 245.144 119.991 245.548 121.521 245.557 C 122.129 245.56 123.302 245.428 123.835 245.631 L 124.179 245.834 L 147.371 245.913 L 147.3 275.559 L 128.445 275.655 C 124.848 275.677 120.945 275.48 117.388 275.949 C 116.728 276.091 115.993 275.992 115.318 275.97 C 116.005 273.031 115.576 269.157 115.588 266.098 L 115.623 245.961 Z" transform="matrix(1, 0, 0, 1, -7.105427357601002e-15, 0)"/>
  <path fill="#F0F9F9" d="M 115.623 245.961 C 116.886 245.144 119.991 245.548 121.521 245.557 C 122.129 245.56 123.302 245.428 123.835 245.631 L 124.179 245.834 L 117.622 245.845 L 117.388 275.949 C 116.728 276.091 115.993 275.992 115.318 275.97 C 116.005 273.031 115.576 269.157 115.588 266.098 L 115.623 245.961 Z" transform="matrix(1, 0, 0, 1, -7.105427357601002e-15, 0)"/>
  <path fill="#58768E" d="M 147.348 180.932 C 148.011 180.594 148.531 180.662 149.245 180.71 L 149.316 180.796 C 148.954 182.163 149.12 183.828 149.115 185.249 C 149.108 187.074 148.943 189.072 149.125 190.878 L 148.933 211.172 L 149.263 211.515 L 151.321 211.523 L 151.004 211.777 C 150.125 211.74 149.133 211.622 148.263 211.716 C 147.073 211.843 145.653 212.378 144.439 211.931 C 143.951 211.751 143.485 211.611 142.98 211.477 L 117.179 211.283 L 117.389 180.92 L 147.348 180.932 Z" transform="matrix(1, 0, 0, 1, -7.105427357601002e-15, 0)"/>
  <path fill="#F0F9F9" d="M 147.348 180.932 C 148.011 180.594 148.531 180.662 149.245 180.71 L 149.316 180.796 C 148.954 182.163 149.12 183.828 149.115 185.249 C 149.108 187.074 148.943 189.072 149.125 190.878 L 148.933 211.172 L 149.263 211.515 L 151.321 211.523 L 151.004 211.777 C 150.125 211.74 149.133 211.622 148.263 211.716 C 147.073 211.843 145.653 212.378 144.439 211.931 C 143.951 211.751 143.485 211.611 142.98 211.477 L 147.223 211.458 L 147.348 180.932 Z" transform="matrix(1, 0, 0, 1, -7.105427357601002e-15, 0)"/>
  <path fill="#58768E" d="M 242.825 180.818 C 243.353 181.053 243.917 181.3 244.327 181.717 C 245.71 183.123 246.507 185.336 247.506 187.022 C 248.76 189.138 250.204 191.124 251.298 193.332 C 252.922 196.612 254.449 201.585 257.175 203.989 C 257.596 205.521 257.814 207.016 258.014 208.589 C 258.275 210.638 257.925 212.851 257.898 214.922 L 257.854 230.54 C 257.848 233.116 257.572 235.794 257.908 238.347 C 257.384 242.761 257.618 247.313 257.596 251.756 L 257.503 274.905 L 257.41 321.043 L 257.301 339.545 L 257.476 340.892 C 257.162 341.067 256.885 341.188 256.52 341.207 C 250.626 341.512 244.555 341.205 238.643 341.214 L 196.181 341.392 C 195.097 340.073 191.779 339.566 190.13 338.829 L 182.148 334.865 L 161.789 326.073 L 153.916 322.354 L 143.347 318.12 L 127.164 310.847 L 122.787 309.153 L 122.356 308.966 L 153.033 308.925 L 212.706 308.931 L 240.513 308.915 C 241.125 308.887 241.763 308.679 242.205 308.24 C 242.633 307.815 242.934 307.201 243.01 306.601 C 243.286 304.395 242.698 301.595 242.673 299.321 L 242.64 277.005 L 242.663 256.422 L 243.051 248.73 L 242.779 236.016 L 242.825 180.818 Z" transform="matrix(1, 0, 0, 1, -7.105427357601002e-15, 0)"/>
  <path fill="#48B18A" d="M 74.837 139.165 L 257.119 138.923 L 257.186 170.838 L 257.175 203.989 C 254.449 201.585 252.922 196.612 251.298 193.332 C 250.204 191.124 248.76 189.138 247.506 187.022 C 246.507 185.336 245.71 183.123 244.327 181.717 C 243.917 181.3 243.353 181.053 242.825 180.818 L 242.646 163.322 C 242.663 160.195 243.162 156.34 242.616 153.297 L 242.263 153.122 C 241.71 153.838 241.542 154.545 241.442 155.431 C 241.149 158.04 241.381 160.824 241.369 163.453 L 241.257 178.927 L 233.235 178.989 C 232.251 177.673 230.927 176.519 229.763 175.356 L 223.614 169.224 L 215.82 161.468 C 214.214 159.872 212.634 158.081 210.794 156.759 L 210.437 153.297 L 209.942 153.243 L 209.242 154.002 L 209.501 155.63 C 209.758 157.373 209.607 159.234 209.59 160.993 L 209.505 170.422 L 209.595 176.224 C 209.614 177.035 209.779 178.02 209.5 178.785 L 180.562 178.778 L 180.617 165.592 C 180.636 161.386 181.256 156.198 179.561 152.272 C 179.056 156.218 179.072 160.178 179.019 164.149 L 178.889 178.773 L 148.902 178.968 C 148.534 179.034 148.136 178.866 147.763 178.916 L 147.263 179.024 C 146.41 179.132 143.273 179.224 142.704 178.774 L 117.391 178.68 L 117.046 153.047 L 116.638 152.753 C 116.307 153.019 115.977 153.116 115.934 153.556 L 115.886 178.919 L 95.373 178.924 L 89.986 178.928 C 89.082 178.928 88.049 178.827 87.174 179.047 C 86.904 179.699 87.057 179.974 87.2 180.653 C 88.975 182.074 99.88 181.061 102.855 181.054 L 115.651 181.17 L 115.634 211.428 C 111.978 211.404 88.783 210.641 87.318 212.05 L 86.895 212.547 L 87.013 213.155 C 88.928 214.271 93.429 213.695 95.761 213.701 L 115.426 213.757 L 115.442 243.649 L 97.215 243.536 C 93.445 243.532 89.202 242.927 85.605 244.105 C 85.338 247.508 85.63 250.912 85.676 254.32 L 85.683 268.269 L 85.648 293.586 L 85.636 306.172 C 85.66 306.784 85.67 307.152 86.067 307.649 C 86.852 308.628 87.963 308.769 89.153 308.853 L 122.356 308.966 L 122.787 309.153 L 127.164 310.847 L 143.347 318.12 L 153.916 322.354 L 161.789 326.073 L 182.148 334.865 L 190.13 338.829 C 191.779 339.566 195.097 340.073 196.181 341.392 L 195.156 341.428 L 129.349 341.47 L 110.908 341.473 C 107.699 341.472 104.1 341.785 100.957 341.254 C 95.105 340.267 87.428 337.335 83.191 333.076 C 78.99 328.852 76.147 323.237 75.229 317.354 C 74.794 314.565 74.881 311.735 74.884 308.921 L 74.933 297.012 L 74.868 263.912 L 74.837 139.165 Z" transform="matrix(1, 0, 0, 1, -7.105427357601002e-15, 0)"/>
  <path fill="#F0F9F9" d="M 142.704 178.774 L 147.343 178.778 C 147.072 173.585 147.446 168.292 147.526 163.087 C 147.573 160.046 147.229 156.471 147.763 153.514 L 148.263 153.132 L 148.763 153.31 C 149.194 156.083 148.892 159.294 148.896 162.113 L 148.902 178.968 C 148.534 179.034 148.136 178.866 147.763 178.916 L 147.263 179.024 C 146.41 179.132 143.273 179.224 142.704 178.774 Z" transform="matrix(1, 0, 0, 1, -7.105427357601002e-15, 0)"/>
</svg>